HIERARCHY
ROOT Hips
{
	OFFSET 0.000000 0.000000 0.000000
	CHANNELS 6 Xposition Yposition Zposition Zrotation Yrotation Xrotation 
	JOINT LowerBack
	{
		OFFSET 0.000000 0.000000 0.000000
		CHANNELS 3 Zrotation Yrotation Xrotation
		JOINT Spine
		{
			OFFSET 0.028270 2.035590 -0.193380
			CHANNELS 3 Zrotation Yrotation Xrotation
			JOINT Spine1
			{
				OFFSET 0.056720 2.048850 -0.042750
				CHANNELS 3 Zrotation Yrotation Xrotation
				JOINT Neck
				{
					OFFSET 0.000000 0.000000 0.000000
					CHANNELS 3 Zrotation Yrotation Xrotation
					JOINT Neck1
					{
						OFFSET -0.054170 1.746240 0.172020
						CHANNELS 3 Zrotation Yrotation Xrotation
						JOINT Head
						{
							OFFSET 0.104070 1.761360 -0.123970
							CHANNELS 3 Zrotation Yrotation Xrotation
							End Site
							{
								OFFSET 0.000000 0.000000 0.000000
							}
						}
					}
				}
				JOINT LeftShoulder
				{
					OFFSET 0.000000 0.000000 0.000000
					CHANNELS 3 Zrotation Yrotation Xrotation
					JOINT LeftArm
					{
						OFFSET 3.362410 1.200890 -0.311210
						CHANNELS 3 Zrotation Yrotation Xrotation
						JOINT LeftForeArm
						{
							OFFSET 4.983000 -0.000000 -0.000000
							CHANNELS 3 Zrotation Yrotation Xrotation
							JOINT LeftHand
							{
								OFFSET 3.483560 -0.000000 -0.000000
								CHANNELS 3 Zrotation Yrotation Xrotation
								JOINT LeftFingerBase
								{
									OFFSET 0.000000 0.000000 0.000000
									CHANNELS 3 Zrotation Yrotation Xrotation
									JOINT LeftHandIndex1
									{
										OFFSET 0.715260 -0.000000 -0.000000
										CHANNELS 3 Zrotation Yrotation Xrotation
										End Site
										{
											OFFSET 0.000000 0.000000 0.000000
										}
									}
								}
								JOINT LThumb
								{
									OFFSET 0.000000 0.000000 0.000000
									CHANNELS 3 Zrotation Yrotation Xrotation
									End Site
									{
										OFFSET 0.000000 0.000000 0.000000
									}
								}
							}
						}
					}
				}
				JOINT RightShoulder
				{
					OFFSET 0.000000 0.000000 0.000000
					CHANNELS 3 Zrotation Yrotation Xrotation
					JOINT RightArm
					{
						OFFSET -3.136600 1.374050 -0.404650
						CHANNELS 3 Zrotation Yrotation Xrotation
						JOINT RightForeArm
						{
							OFFSET -5.241900 -0.000000 -0.000000
							CHANNELS 3 Zrotation Yrotation Xrotation
							JOINT RightHand
							{
								OFFSET -3.444170 -0.000000 -0.000000
								CHANNELS 3 Zrotation Yrotation Xrotation
								JOINT RightFingerBase
								{
									OFFSET 0.000000 0.000000 0.000000
									CHANNELS 3 Zrotation Yrotation Xrotation
									JOINT RightHandIndex1
									{
										OFFSET -0.622530 -0.000000 -0.000000
										CHANNELS 3 Zrotation Yrotation Xrotation
										End Site
										{
											OFFSET 0.000000 0.000000 0.000000
										}
									}
								}
								JOINT RThumb
								{
									OFFSET 0.000000 0.000000 0.000000
									CHANNELS 3 Zrotation Yrotation Xrotation
									End Site
									{
										OFFSET 0.000000 0.000000 0.000000
									}
								}
							}
						}
					}
				}
			}
		}
	}
}
}
MOTION
Frames: 14
Frame Time: 0.008333
1.904086 16.841692 4.956256 4.774795 21.667317 -0.818393 3.556330 -5.181791 -0.788276 0.463614 -5.499028 -2.306549 -5.107305 -5.480901 2.859991 7.373984 -19.036176 -9.300912 -2.615540 -0.182320 -0.401042 0.000000 0.000000 0.000000 -1.050357 15.069826 0.791679 -35.247180 -1.504186 5.693623 -1.476471 -61.084124 -0.001540 0.978498 0.854942 0.008195 -0.117917 0.127129 -0.000000 0.000000 0.000000 0.000000 0.000000 0.000000 0.000000 14.159404 -17.732793 -0.618222 72.093337 -21.929832 -22.703329 4.494164 18.190407 0.008599 2.026423 3.026774 0.051058 0.128358 -0.031314 0.000000 0.000000 0.000000 0.000000 0.000000 0.000000 0.000000 
1.918155 16.839722 5.096307 4.658772 21.513856 -0.845680 3.733930 -5.158427 -0.902990 0.498125 -5.488610 -2.344118 -5.131741 -5.469232 2.814060 7.430165 -19.004513 -9.315841 -2.643103 -0.184805 -0.403870 0.000000 0.000000 0.000000 -1.036091 15.107859 0.693843 -36.012557 -1.070793 6.248379 -1.417557 -62.405333 -0.000941 0.797815 0.771140 0.006289 -0.112996 0.129031 -0.000000 0.000000 0.000000 0.000000 0.000000 0.000000 0.000000 14.263700 -17.632581 -0.596655 72.123118 -21.646762 -22.606533 4.497431 18.109762 0.008493 2.119954 2.994063 0.052958 0.126984 -0.031021 0.000000 0.000000 0.000000 0.000000 0.000000 0.000000 0.000000 
1.929652 16.837869 5.235450 4.548276 21.359144 -0.862004 3.883311 -5.133271 -1.007866 0.525080 -5.474571 -2.379348 -5.161754 -5.453595 2.767816 7.504899 -18.960028 -9.332646 -2.671346 -0.187300 -0.407201 0.000000 0.000000 0.000000 -1.008416 15.138436 0.598791 -36.804114 -0.612517 6.812878 -1.364453 -63.646216 -0.000280 0.606686 0.666942 0.004481 -0.108022 0.130737 -0.000000 0.000000 0.000000 0.000000 0.000000 0.000000 0.000000 14.384962 -17.519418 -0.573003 72.158687 -21.292650 -22.501688 4.496186 18.014938 0.008426 2.180265 2.980443 0.054357 0.125692 -0.030939 0.000000 0.000000 0.000000 0.000000 0.000000 0.000000 0.000000 
1.938486 16.836051 5.373124 4.449481 21.207920 -0.868321 3.998911 -5.107147 -1.097989 0.543392 -5.457224 -2.411146 -5.196353 -5.434377 2.721465 7.594814 -18.902118 -9.350307 -2.699991 -0.189783 -0.410812 0.000000 0.000000 0.000000 -0.967888 15.157405 0.507910 -37.620633 -0.134299 7.384555 -1.317716 -64.789710 0.000430 0.403025 0.544488 0.002969 -0.102981 0.132187 -0.000000 0.000000 0.000000 0.000000 0.000000 0.000000 0.000000 14.519226 -17.394179 -0.547220 72.206939 -20.866520 -22.390091 4.490005 17.907846 0.008395 2.205758 2.985392 0.055159 0.124485 -0.031090 0.000000 0.000000 0.000000 0.000000 0.000000 0.000000 0.000000 
1.944664 16.834228 5.508829 4.366773 21.062568 -0.865797 4.077885 -5.080373 -1.169218 0.552545 -5.436536 -2.438691 -5.234563 -5.411631 2.674970 7.695639 -18.828412 -9.367143 -2.728975 -0.192257 -0.414309 0.000000 0.000000 0.000000 -0.916091 15.161435 0.422432 -38.461813 0.359701 7.960590 -1.277851 -65.819981 0.001177 0.186812 0.407999 0.001854 -0.097893 0.133298 -0.000000 0.000000 0.000000 0.000000 0.000000 0.000000 0.000000 14.661989 -17.255527 -0.519455 72.274008 -20.369538 -22.275381 4.478728 17.793157 0.008394 2.198521 3.005898 0.055361 0.123349 -0.031485 0.000000 0.000000 0.000000 0.000000 0.000000 0.000000 0.000000 
1.948305 16.832390 5.642152 4.302201 20.923647 -0.856129 4.119549 -5.052758 -1.218179 0.552589 -5.412097 -2.461317 -5.275076 -5.385061 2.628541 7.802597 -18.739996 -9.381811 -2.757821 -0.194691 -0.417382 0.000000 0.000000 0.000000 -0.856235 15.147946 0.343241 -39.326903 0.866843 8.536679 -1.245178 -66.724232 0.001943 -0.041878 0.264659 0.001237 -0.092783 0.133960 -0.000000 0.000000 0.000000 0.000000 0.000000 0.000000 0.000000 14.807142 -17.105362 -0.489883 72.362768 -19.800502 -22.146765 4.462304 17.674033 0.008417 2.159252 3.039671 0.054963 0.122283 -0.032113 0.000000 0.000000 0.000000 0.000000 0.000000 0.000000 0.000000 
1.949594 16.830570 5.772758 4.255359 20.789275 -0.841044 4.127035 -5.023528 -1.242787 0.544337 -5.383192 -2.478781 -5.316813 -5.354058 2.581972 7.910503 -18.634529 -9.392286 -2.786408 -0.197096 -0.419541 0.000000 0.000000 0.000000 -0.792202 15.116087 0.271108 -40.215762 1.384472 9.109245 -1.219993 -67.491650 0.002701 -0.281010 0.123245 0.001116 -0.087719 0.134047 -0.000000 0.000000 0.000000 0.000000 0.000000 0.000000 0.000000 14.948781 -16.941447 -0.458897 72.475874 -19.163131 -22.001426 4.441077 17.557721 0.008449 2.093925 3.080930 0.053964 0.121261 -0.032957 0.000000 0.000000 0.000000 0.000000 0.000000 0.000000 0.000000 
1.948782 16.828775 5.900385 4.223529 20.655507 -0.822421 4.105492 -4.991476 -1.242155 0.529062 -5.348843 -2.491083 -5.358674 -5.317752 2.535193 8.014393 -18.511340 -9.396678 -2.814450 -0.199473 -0.420321 0.000000 0.000000 0.000000 -0.729146 15.066584 0.206422 -41.127840 1.910590 9.674391 -1.202492 -68.113999 0.003424 -0.527077 -0.006773 0.001593 -0.082790 0.133428 -0.000000 0.000000 0.000000 0.000000 0.000000 0.000000 0.000000 15.080771 -16.762909 -0.427090 72.613143 -18.460645 -21.828957 4.415571 17.451485 0.008480 2.008724 3.124703 0.052468 0.120263 -0.033989 0.000000 0.000000 0.000000 0.000000 0.000000 0.000000 0.000000 
1.946199 16.827064 6.024878 4.202146 20.517244 -0.801997 4.061837 -4.955048 -1.216926 0.508389 -5.307900 -2.498569 -5.399750 -5.275082 2.488064 8.110192 -18.370463 -9.393319 -2.841632 -0.201819 -0.419299 0.000000 0.000000 0.000000 -0.672115 15.001007 0.149290 -42.061426 2.444324 10.228242 -1.192683 -68.586770 0.004082 -0.775777 -0.115620 0.002569 -0.078094 0.131981 -0.000000 0.000000 0.000000 0.000000 0.000000 0.000000 0.000000 15.197792 -16.569125 -0.395141 72.772128 -17.697446 -21.615453 4.386517 17.363487 0.008501 1.911026 3.166325 0.050472 0.119269 -0.035171 0.000000 0.000000 0.000000 0.000000 0.000000 0.000000 0.000000 
1.942138 16.825505 6.146216 4.185954 20.368448 -0.780548 4.003214 -4.912472 -1.169307 0.483842 -5.259084 -2.501879 -5.439790 -5.224818 2.440317 8.195106 -18.209184 -9.380237 -2.868085 -0.204177 -0.415966 0.000000 0.000000 0.000000 -0.626017 14.923433 0.099754 -43.013870 2.982398 10.768933 -1.190626 -68.906045 0.004646 -1.021040 -0.195194 0.003744 -0.073761 0.129604 -0.000000 0.000000 0.000000 0.000000 0.000000 0.000000 0.000000 15.297225 -16.356236 -0.364169 72.949354 -16.882892 -21.354405 4.354904 17.305927 0.008503 1.812095 3.200629 0.048276 0.118241 -0.036473 0.000000 0.000000 0.000000 0.000000 0.000000 0.000000 0.000000 
1.936866 16.824170 6.264485 4.170071 20.202899 -0.758372 3.936310 -4.862076 -1.102411 0.456867 -5.201227 -2.501775 -5.478583 -5.165829 2.391867 8.267828 -18.027159 -9.356102 -2.893768 -0.206567 -0.409964 0.000000 0.000000 0.000000 -0.595018 14.838124 0.057564 -43.981404 3.522500 11.294632 -1.196220 -69.071015 0.005096 -1.256783 -0.238673 0.004819 -0.069907 0.126224 -0.000000 0.000000 0.000000 0.000000 0.000000 0.000000 0.000000 15.377737 -16.122761 -0.335305 73.138909 -16.024831 -21.031546 4.321666 17.289481 0.008485 1.721101 3.225249 0.046080 0.117149 -0.037858 0.000000 0.000000 0.000000 0.000000 0.000000 0.000000 0.000000 
1.930650 16.823140 6.379851 4.149262 20.014529 -0.735299 3.866777 -4.802306 -1.020306 0.428762 -5.133240 -2.499080 -5.515828 -5.097051 2.343076 8.328033 -17.828934 -9.320682 -2.918192 -0.208961 -0.401200 0.000000 0.000000 0.000000 -0.583745 14.749147 0.021958 -44.958932 4.064167 11.803210 -1.209127 -69.084850 0.005408 -1.476698 -0.241888 0.005494 -0.066623 0.121809 -0.000000 0.000000 0.000000 0.000000 0.000000 0.000000 0.000000 15.438015 -15.872357 -0.309529 73.331776 -15.126929 -20.621128 4.287610 17.320192 0.008453 1.642451 3.242418 0.044085 0.115999 -0.039294 0.000000 0.000000 0.000000 0.000000 0.000000 0.000000 0.000000 
1.923668 16.822513 6.492560 4.120401 19.798617 -0.710158 3.798296 -4.731929 -0.927430 0.400268 -5.054267 -2.494626 -5.551795 -5.017614 2.294250 8.377274 -17.617084 -9.273886 -2.941337 -0.211368 -0.389619 0.000000 0.000000 0.000000 -0.594751 14.661080 -0.007743 -45.940250 4.605035 12.294127 -1.229059 -68.950655 0.005570 -1.674664 -0.204026 0.005471 -0.063987 0.116371 -0.000000 0.000000 0.000000 0.000000 0.000000 0.000000 0.000000 15.480478 -15.606655 -0.287979 73.518970 -14.196155 -20.106210 4.253479 17.406529 0.008420 1.582330 3.254659 0.042591 0.114777 -0.040757 0.000000 0.000000 0.000000 0.000000 0.000000 0.000000 0.000000 
1.916028 16.822378 6.602845 4.082340 19.552028 -0.681345 3.731334 -4.650180 -0.828918 0.371234 -4.963761 -2.489425 -5.587670 -4.926927 2.245058 8.418610 -17.386433 -9.214782 -2.964073 -0.213877 -0.374949 0.000000 0.000000 0.000000 -0.627368 14.580431 -0.031743 -46.920211 5.140418 12.769497 -1.255917 -68.669856 0.005577 -1.844272 -0.127628 0.004651 -0.062091 0.109970 -0.000000 0.000000 0.000000 0.000000 0.000000 0.000000 0.000000 15.511471 -15.318920 -0.272130 73.694378 -13.248989 -19.492984 4.219942 17.564435 0.008392 1.551681 3.263070 0.041898 0.113429 -0.042248 0.000000 0.000000 0.000000 0.000000 0.000000 0.000000 0.000000 
